# xmcd
#
# Track frame offsets:
#	150
#	13888
#	26663
#	41038
#	61788
#	74017
#	86438
#	97288
#	109062
#	130859
#	145902
#	163477
#
# Disc length: 2396 seconds
#
# Revision: 1
# Processed by: cddbd v1.5.2PL0 Copyright (c) Steve Scherf et al.
# Submitted via: audiograbber 1.83.01
#
DISCID=b1095a0c
DTITLE=Iron Horse - New Tracks
DYEAR=1900
DGENRE=
TTITLE0=You've Waited Too Long
TTITLE1=Holdin' The Wind
TTITLE2=Shine Jerusalem
TTITLE3=Old Elijah
TTITLE4=If You're Ever In Oklahoma
TTITLE5=Land Where No Cabins Fall
TTITLE6=Girl Walking In My Dreams
TTITLE7=New Tracks
TTITLE8=Gonna Ride Those Trains
TTITLE9=Dancin' With The Angels
TTITLE10=Face Of Christ
TTITLE11=Travelin' Kind
EXTD=Recorded at Desert Rose Studio in Tuscumbia, AL (2005)
EXTT0=
EXTT1=
EXTT2=
EXTT3=
EXTT4=
EXTT5=
EXTT6=
EXTT7=
EXTT8=
EXTT9=
EXTT10=
EXTT11=
PLAYORDER=
